<?xml version="1.0" standalone="no"?>
<!DOCTYPE svg PUBLIC "-//W3C//DTD SVG 1.1//EN" "http://www.w3.org/Graphics/SVG/1.1/DTD/svg11.dtd" >
<svg xmlns="http://www.w3.org/2000/svg">
<metadata></metadata>
<defs>
<font id="mine_oh_minemedium" horiz-adv-x="856" >
<font-face units-per-em="2048" ascent="1638" descent="-410" />
<missing-glyph horiz-adv-x="915" />
<glyph horiz-adv-x="0" />
<glyph unicode="&#xd;" horiz-adv-x="681" />
<glyph unicode=" "  horiz-adv-x="915" />
<glyph unicode="&#x09;" horiz-adv-x="915" />
<glyph unicode="&#xa0;" horiz-adv-x="915" />
<glyph unicode="!" horiz-adv-x="331" d="M98 1118q-4 139 8 172l9 27q6 20 26.5 30.5t42 3t30.5 -27.5t3 -41l-8 -25q-6 -25 -2 -135q2 -129 10 -293q10 -164 8 -262v-96q0 -23 -15 -38t-37.5 -15t-39 16.5t-16.5 36.5v96q2 94 -8 258q-8 164 -11 293zM123 200.5q0 22.5 15.5 39t38 16.5t38.5 -16l6 -7 q16 -16 16.5 -38.5t-16 -38t-39 -15.5t-37.5 17l-8 6q-14 14 -14 36.5z" />
<glyph unicode="&#x22;" horiz-adv-x="565" d="M98 1155l6 23q6 18 13 41l4 24q6 20 25.5 32.5t41 8.5t33.5 -23.5t6 -41.5l-4 -25q-6 -27 -14 -49l-6 -23q-6 -20 -26.5 -30.5t-42 -4t-32 27t-4.5 40.5zM306 1106.5q-5 21.5 5 42.5l15 20q12 23 22 45l8 15q-1 27 15 43t38.5 16t39.5 -16l6 -6q31 -31 6 -68q0 -4 -2 -8 l-13 -25q-14 -27 -28 -49l-12 -22q-12 -20 -34 -25.5t-41.5 5.5t-24.5 32.5z" />
<glyph unicode="&#x26;" horiz-adv-x="780" d="M98 49l11 27q10 29 63 166q20 59 45 120q4 6 6 15l-22 41q0 2 -2 2q-16 10 -25 26l-31 66q-8 18 0.5 39.5t27.5 31t40.5 2.5t32.5 -28l28 -63q6 14 13 28q45 106 86 213q10 25 20 49q-10 41 -18 82q-4 25 -8 49q-49 268 8 383q59 119 137 78q27 -16 45 -55 q43 -88 23 -250q-14 -102 -43 -203q-14 -45 -31 -92q6 -27 14 -53q31 -109 70 -195q82 -172 92 -252q8 -78 2 -135q-4 -37 -24.5 -66.5t-59.5 -33.5q-27 -6 -58.5 6t-50 25.5t-61.5 46.5q-78 61 -133 141q-12 -31 -23 -57q-51 -135 -61 -162l-10 -29q-6 -20 -26.5 -29.5 t-42 -2t-31 28t-3.5 40.5zM344 385l10 -18q53 -94 140 -162q51 -39 79 -53v4q6 43 -2 106t-82 221q-27 57 -51 127q-27 -66 -53 -131q-18 -43 -37 -88q-2 -2 -4 -6zM459 1016q6 35 10 69q12 98 0 160q-30 -67 -10 -229z" />
<glyph unicode="'" horiz-adv-x="380" d="M97 942.5q-3 22.5 9 40.5l29 39q12 16 21 29q-23 37 8 67q14 14 36.5 15.5t37.5 -13.5q12 -2 22 -8q18 -10 23.5 -32.5t-4.5 -41.5l-13 -18q-12 -20 -43 -62l-28 -40q-14 -16 -37 -20.5t-40.5 9t-20.5 36z" />
<glyph unicode="," horiz-adv-x="335" d="M97 -63.5q-5 22.5 9 40.5l21 31q-12 14 -11 35t15 35q16 16 39 16t39 -16l6 -6q16 -16 16 -41q20 -31 0 -64l-36 -51q-12 -18 -35 -22.5t-40.5 8t-22.5 35z" />
<glyph unicode="." horiz-adv-x="305" d="M96.5 53q-0.5 23 15 38t38 15t38.5 -14l7 -8q16 -14 16 -36.5t-15.5 -39t-39 -16.5t-37.5 16l-6 6q-16 16 -16.5 39z" />
<glyph unicode="0" horiz-adv-x="1038" d="M96 606q-2 162 19 287q20 131 78 237q61 111 139 158q88 51 239 -2q139 -49 193 -100l45 -43q22 -20 16 -51q18 -25 37 -56q25 -43 45 -114q20 -68 31 -131q10 -68 0 -140q-8 -70 -29 -133q-20 -61 -47.5 -131t-66.5 -151q-41 -86 -88 -146q-49 -63 -107 -92 q-59 -31 -113 -31q-49 0 -92 15q-45 16 -100 69q-51 49 -98 125q-49 76 -74 172q-25 94 -27 258zM205 608q2 -152 22 -233q20 -80 60 -142q41 -63 84 -104q37 -35 59 -43q29 -10 59 -10q25 0 60 18q37 18 74 64q39 49 73 125q39 78 64 143q27 68 45 125q18 55 26 115 q6 57 0 108q-10 55 -28 117q-16 59 -35 92q-18 33 -35 47q-23 23 -35 39q-8 10 -51 47l-47 39l-6 6q-27 12 -59 23q-102 37 -148 10q-53 -31 -98 -115q-49 -90 -68 -202q-18 -117 -16 -269z" />
<glyph unicode="1" horiz-adv-x="505" d="M98 1101.5q-6 22.5 6 41.5l43 76q47 78 89 135l38 55q12 18 35 21t41 -9q31 -23 19 -61q6 -10 6 -21l2 -26q0 -27 2 -120t0 -198q-2 -102 0 -202q2 -98 10 -170q8 -80 8 -166q2 -86 4 -162q0 -74 2 -113t5 -67v-39q2 -18 2 -33v-12q0 -23 -15.5 -39.5t-38 -16.5t-39 15.5 t-16.5 38.5v14v25q-2 16 -2 45q-2 25 -4 63q-2 41 -2 117q-2 76 -4 160q0 84 -8 157q-8 78 -11 183q-2 100 0 204q2 102 0 195v18q-14 -23 -28 -47l-45 -76q-10 -18 -33 -24t-41.5 5t-24.5 33.5z" />
<glyph unicode="2" horiz-adv-x="1064" d="M96 38.5q-2 10.5 1 20t5 13.5t6 10l5 6q29 47 110 160q80 113 166 209q84 94 178 221t148 207q53 78 94 155q12 25 19.5 45.5t9.5 28.5t2 10q-4 16 -17 25q-31 23 -78 49q-37 23 -92 27q-53 4 -131 -39q-84 -49 -139 -103q-55 -57 -76 -84l-22 -32q-14 -18 -36 -21.5 t-40.5 10t-22.5 35t11 39.5l22 33q25 35 88 96q63 66 162 121q109 61 193 53q82 -6 139 -41q49 -31 84 -53q49 -35 61 -94q10 -57 -41 -154q-43 -84 -100 -168q-55 -82 -152 -211q-96 -131 -182 -227q-82 -92 -160 -201q-14 -18 -26 -37q29 6 57 7q70 0 170 -7.5t193 -23.5 q86 -14 147 -17l66 -2q23 0 38 -17t14 -38.5t-17.5 -37t-39.5 -15.5l-65 2q-68 2 -162 18q-86 14 -182 21.5t-160 7.5q-53 0 -113 -35q-4 -4 -10 -8t-23.5 -13t-32.5 -11.5t-32.5 7t-30.5 33.5q-4 10 -6 20.5z" />
<glyph unicode="3" horiz-adv-x="972" d="M96 330q-4 23 9.5 41t35 22t41 -9t23.5 -36l12 -67q8 -51 72 -119q57 -63 145 -64q98 0 174 39q74 37 119 123q47 90 43 162q-4 74 -37 129q-31 51 -90 78q-63 29 -121 24q-66 -2 -125 -16q-4 -2 -9 -4t-19.5 -4t-26.5 1t-23.5 15t-14.5 36t5 42t17.5 25.5t28 19.5 t22.5 14q86 63 168 136q76 68 104 133q27 63 23 96q-4 25 -27 45q-27 23 -78 27q-59 4 -136 -26t-134 -89q-57 -61 -68 -88l-14 -39q-8 -20 -28.5 -29.5t-41 -2.5t-31 28.5t-1.5 42.5l14 37q18 49 92 125q74 78 173.5 115.5t180.5 33.5q90 -6 144 -53q53 -47 61 -115 q8 -61 -29.5 -149t-130.5 -172q-43 -39 -88 -76q78 2 158 -35q90 -41 139 -121q45 -78 52 -178q6 -102 -56 -217q-61 -117 -166 -170q-98 -51 -223 -51q-135 0 -225 98q-84 90 -100 174z" />
<glyph unicode="4" horiz-adv-x="968" d="M98 367q4 53 27 276q20 219 27 401q8 184 8 234l2 49q0 23 16.5 38t39 15t37.5 -17t15 -38l-2 -51q0 -49 -8 -234q-6 -184 -29 -409q-16 -176 -22 -244q35 8 80 16q78 12 184 15q18 0 37 4q-2 53 -4 104q-6 176 -2 269l4 90q0 23 17.5 38t39 14t36.5 -17.5t15 -38.5 l-4 -90q-4 -90 2 -261q2 -35 2 -67q25 12 52 31l120 84q16 14 39 10t36.5 -22.5t9 -41t-22.5 -35.5l-119 -83q-57 -39 -110 -64q2 -84 4 -170l2 -182q0 -23 -15.5 -39.5t-38 -16.5t-39 15.5t-16.5 38.5l-2 182q-2 74 -4 141q-18 -2 -35 -2q-100 -2 -170 -14 q-70 -10 -102 -23q-23 -12 -57.5 -0.5t-47.5 45.5q-6 20 -2 50z" />
<glyph unicode="5" horiz-adv-x="905" d="M96.5 235.5q1.5 22.5 19 37t40 12.5t37.5 -19l57 -69q51 -59 170 -115q51 -23 85 -16.5t66 45.5q76 90 117 335q39 233 -39 304q-74 68 -149 38q-90 -35 -152 -110q-74 -94 -135 -43q-33 27 -37 100q-4 117 14 330q12 123 32 188.5t73 92.5q68 31 211 38q135 8 188 15 l56 6q23 2 40 -12.5t19 -37t-11.5 -40t-35.5 -19.5l-55 -6q-57 -6 -193 -14q-123 -6 -170 -29q-6 -4 -13 -25.5t-17.5 -66.5t-14.5 -98q-16 -180 -14 -287q74 82 178 121q135 51 260 -62q121 -109 72 -399q-45 -279 -142 -389q-53 -63 -126.5 -78.5t-151.5 21.5 q-139 63 -207 143l-59 70q-14 16 -12.5 38.5z" />
<glyph unicode="6" horiz-adv-x="833" d="M96 391v74q8 252 56 438q49 186 114 303q72 123 148 164q88 49 188 -4q96 -49 119 -127l16 -57q6 -23 -5 -42.5t-32.5 -25.5t-41 5t-25.5 32l-17 57q-10 33 -65 62q-49 27 -86 6q-49 -29 -105 -125q-57 -102 -102 -274q-39 -143 -49 -332q45 61 108 110q147 115 256 64 q106 -47 136 -254q27 -197 -54 -313q-76 -113 -190 -160q-123 -51 -209 -8q-78 41 -123 133q-12 25 -20 59q-16 18 -15 41v21q0 8 4 20q-6 57 -6 133zM211 252q2 -10 2 -21q8 -45 18 -67q29 -59 76 -84q39 -20 117 12q84 35 141 121q57 82 35 238q-20 147 -72 170 q-49 23 -143 -52q-109 -82 -141 -196q-23 -84 -33 -121z" />
<glyph unicode="7" horiz-adv-x="1067" d="M96 1273.5q0 22.5 16.5 39t39.5 16.5h43q43 0 161 -4q115 -4 291 17.5t225 35.5q41 12 68 -6q12 -10 20.5 -20.5t10.5 -20.5t0 -21.5t-6 -19.5t-10.5 -18t-10.5 -15.5t-9 -11.5l-5 -6q-49 -63 -99 -184q-51 -125 -108 -326t-76 -330q-20 -133 -31 -198q-10 -63 -14 -95 q-4 -37 -12 -59q4 -16 4 -33v-14q0 -23 -15.5 -39t-38 -16t-39 15t-16.5 38v12q0 8 -2 17q-6 31 6 61q2 8 7 33q4 31 14 92q10 72 29 203q20 135 78.5 343t113.5 337q39 94 78 159q-59 -10 -150 -20q-184 -23 -305 -18q-119 4 -159 4h-43q-23 0 -39.5 15t-16.5 37.5z" />
<glyph unicode="8" horiz-adv-x="958" d="M96 340q-2 90 62 223q53 111 86 158q-12 14 -25 31q-37 49 -57 104q-20 57 -19 158q0 102 47 186q53 92 156 119q99 22 197 -27q33 6 51 -20l12 -15q33 -23 49 -40l23 -25q10 -10 14 -29q10 -20 17 -39q12 -25 18 -71q6 -41 6 -84q2 -37 2 -72q2 -51 -33 -106 q-18 -29 -45 -52q8 -8 19 -16q20 -18 43 -49q14 -20 35 -37q35 -27 59 -68q23 -41 41 -112q18 -80 0 -148q-18 -63 -68 -131q-49 -66 -100 -102q-55 -39 -138 -58.5t-145 -11.5q-57 10 -131 47q-78 39 -126 117t-50 170zM205 340q0 -61 32.5 -112.5t84.5 -77.5 q57 -29 98 -35t103.5 8t99.5 41t75 78q39 51 52 96q10 41 -2 92q-14 57 -29 84q-14 23 -33 39q-33 27 -55 57q-14 20 -27 33q-20 16 -37 33q0 2 -4 4q-23 -10 -45 -18q-59 -25 -108 -25q-39 0 -78 18q-31 -41 -76 -139q-51 -111 -51 -176zM252 1012q-2 -80 12 -119 q14 -41 41 -78q10 -12 21 -22q25 4 43 -13q12 -12 16 -30q14 -4 27 -5q27 0 65 17q8 2 17 6q6 18 24.5 27.5t38.5 5.5q2 0 4 2q31 18 51 47q16 25 15 43q0 35 -2 74q0 37 -7 71q-4 31 -8 45q-8 16 -18 35q-4 10 -21 23q-20 17 -36 33q-6 4 -13 6q-14 8 -30 18 q-59 29 -119 14q-59 -14 -88 -65q-33 -59 -33 -135z" />
<glyph unicode="9" horiz-adv-x="860" d="M111 729q-47 166 63 371q111 209 256 235q141 25 225 -28l50 -33l47 -27q8 -12 10 -20t2 -11.5t-2 -5.5l-2 -2q-2 -25 -2 -45t-17 -73q-2 -37 -4 -80q-2 -29 -4 -62q-6 -96 -22 -239q-23 -190 -33 -328q-8 -135 -14 -231q-4 -98 -9 -119q-2 -27 -12 -47l-6 -13 q-10 -20 -30.5 -28.5t-41 1t-29 30t2.5 40.5l6 15q2 6 4 18q2 14 6 109q6 96 16 233q8 139 31 332l8 78q-33 -51 -75 -105q-70 -88 -132.5 -131t-126.5 -31q-117 20 -165 197zM215 760q31 -113 80 -121q10 -2 28.5 6t53.5 38t74 79q90 115 135 213q14 29 22 55q16 45 27 80 q4 41 8 74l-47 30q-47 31 -145 15q-94 -18 -183 -180q-88 -166 -53 -289z" />
<glyph unicode="?" horiz-adv-x="847" d="M98 1073l11 29q10 29 32.5 56.5t77.5 82.5q102 104 215 102q106 -2 203 -69q100 -74 113 -150q12 -74 -35 -151q-41 -66 -101 -123q-55 -53 -120 -109q-49 -43 -60 -75q-12 -37 -8 -64q6 -37 10 -70l4 -32q2 -23 -12 -40.5t-35.5 -20.5t-40 11.5t-20.5 36.5l-4 33 q-4 31 -11 68q-6 49 13 108q20 66 94 127q61 53 115 105q49 49 82 102q27 43 22 78q-6 31 -70 76q-70 49 -141 51q-66 2 -135 -70q-74 -74 -86 -98l-8 -29q-8 -20 -28.5 -30.5t-41 -3t-31 27t-4.5 41.5zM360.5 228q-0.5 24 16 39.5t39 15.5t39.5 -17l6 -6q14 -14 14 -37.5 t-15.5 -39t-38 -15.5t-38.5 16l-6 6q-16 14 -16.5 38z" />
<glyph unicode="@" horiz-adv-x="1224" d="M97 354.5q-5 96.5 16 237.5q23 141 63 229q43 92 139 164q100 74 224 64q113 -10 190 -58q74 -45 156 -139q80 -92 153 -223q76 -135 86 -215q10 -78 2 -152q-10 -82 -39 -135q-27 -49 -63 -94q-47 -57 -94 -64q-57 -8 -103 49q-33 41 -59 129q-8 31 -14 64 q-6 -10 -11 -21q-55 -119 -125 -174q-41 -35 -89 -39t-93 23q-78 47 -110 137q-33 84 -17 221q14 135 80 250q74 127 172 148q106 23 172 -54q25 -31 43 -57q10 0 19.5 -2t15.5 -7t8 -7t6 -9l4 -8q20 -29 25 -69q3 -35 -20 -115q2 -49 8 -98q10 -80 30 -154q20 -66 39 -90 q4 -4 7 -6q10 6 22 22q31 37 51 76q20 35 27 94q6 63 0 127q-8 59 -74 176q-68 121 -141 205q-72 82 -131 119q-55 35 -144 41q-80 8 -147 -43q-74 -55 -107 -123q-35 -72 -53 -199q-20 -129 -15 -214t34 -193q27 -100 100 -188q70 -86 152 -109q88 -27 147 -23t76 15l24 14 q20 10 42 3t32 -26.5t4 -41t-24 -31.5l-27 -14q-37 -20 -119 -25q-78 -6 -186 25q-115 33 -205 143q-88 106 -121 229q-33 119 -38 215.5zM416 346q-12 -111 10 -172q20 -53 66 -82q16 -10 28 -9t31 17q49 39 94 136q29 61 49 118q14 37 27 76q0 4 1 6l1 2q-2 25 -2 47 q-2 17 -2 31q-2 4 -2 6l-17 35q-12 29 -51 74q-23 29 -65 18q-51 -10 -101 -94q-53 -96 -67 -209z" />
<glyph unicode="A" horiz-adv-x="888" d="M98 84q-1 5 -1 13q0 61 40 323q43 293 78 428t86 274q55 143 125 240q72 102 117 125q39 16 75 26q14 4 26 4q30 -1 50 -25q27 -34 33 -75q5 -38 5 -122q0 -64 -3 -154q-4 -145 -4 -273q12 -14 14 -30q2 -25 -14 -43v-25q0 -168 10 -319q10 -147 21 -201q14 -57 20 -90 q6 -37 8 -51q0 -8 4 -21q5 -16 5 -31q0 -19 -7 -37q-10 -26 -26 -32q-6 -2 -10 -2q-10 0 -19 6q-14 10 -27.5 24.5t-21.5 28.5l-8 12l-4 39q-2 13 2 25q0 10 -2 18q-6 31 -19 88q-14 59 -24 217q-10 154 -11 324v2l-53 -6q-102 -11 -177 -11q-21 0 -40 1h-41 q-27 -129 -61 -351q-39 -268 -39 -307l4 -30q4 -23 -10.5 -40.5t-36 -20.5t-40 10.5t-20.5 35.5zM332 862h18q18 -1 38 -1q70 0 165 11l63 7q0 125 5 266q2 78 2 135q0 85 -5 121l-28 -12q-20 -12 -76 -91q-61 -84 -111 -215q-42 -112 -71 -221z" />
<glyph unicode="B" horiz-adv-x="1085" d="M98 1282q-2 8 -2 16q0 10 4 22q8 18 27 28v2q-4 23 10.5 40t36.5 19q5 1 10 1q33 0 47 -34q49 8 148 10q12 1 25 1q133 0 255 -60q47 -23 77 -55.5t39 -73.5q2 -11 2 -23q0 -31 -17 -63q-51 -94 -201 -188q-72 -43 -137 -82q113 -4 227 -35q131 -33 246 -119 q66 -50 86 -112q8 -24 8 -49q0 -41 -20 -85q-57 -104 -215 -225q-154 -119 -289 -184q-89 -44 -157 -44q-30 0 -56 9q-12 -10 -29 -14h-6q-19 0 -35 11q-18 13 -20 36l-4 26l-4 2q-18 12 -22.5 35t7.5 41l4 8q-12 92 -14 246q0 170 6 377q5 135 5 246q0 55 -1 104 q-2 78 -4 131q-29 8 -37 35zM238 391q2 -164 16 -252l2 -18l23 -15q13 -9 34 -10q39 0 105 35q125 61 270 172q139 106 184 191q11 17 11 33q0 8 -3 17q-8 25 -49 56q-98 74 -208 102q-113 29 -224 33h-35q-82 0 -120 -8q-6 -184 -6 -336zM244 1268q2 -51 4 -150 q1 -54 1 -116t-1 -132q8 4 12 7q106 55 242 141q127 78 162 145q7 12 7 17q-1 6 -13 19q-14 13 -48 30q-96 50 -203 50q-12 0 -24 -1q-88 -2 -139 -10z" />
<glyph unicode="C" horiz-adv-x="1107" d="M125 459q-29 140 -29 254q0 123 33 217q66 178 201 311q114 109 250 109q43 0 88 -11q180 -43 250 -170q57 -109 75 -149l17 -41q4 -10 4 -20q0 -11 -4 -21q-8 -20 -28.5 -29.5t-42 -1.5t-30.5 29l-16 41q-16 37 -72 141q-45 84 -180 117q-30 7 -58 7q-95 0 -177 -79 q-119 -115 -175 -270q-26 -77 -26.5 -180t26.5 -232q53 -254 144 -331q88 -78 207 -82q14 -1 27 -1q89 0 118 37q45 57 94 203l53 154q8 20 28 30.5t41.5 3t31.5 -28t2 -42.5l-53 -152q-55 -164 -113 -235q-64 -79 -208 -79q-13 0 -28 1q-156 6 -272 109q-117 100 -178 391z " />
<glyph unicode="D" horiz-adv-x="1107" d="M98 12q-2 7 -2 15q0 13 6 27q10 20 33 26l6 2q-4 18 -11 118.5t-9 342.5q-2 240 -12 467q-8 175 -8 256q0 25 1 41l2 67q0 8 2 15q1 16 7 28q9 19 31 27q9 3 19 4q12 0 23 -6l13 -6q25 -10 194 -60q201 -57 428 -239q193 -154 192 -341q0 -55 -16 -114 q-68 -233 -200 -377q-131 -139 -258 -217q-131 -80 -240 -90q-90 -8 -109 -14l-24 -7q-8 -3 -17 -3q-12 0 -24 6q-21 12 -27 32zM211 1303q-1 -19 -1 -51q0 -79 7 -238q10 -227 12 -469q2 -240 9 -336q6 -82 10 -107q16 2 41 4q84 6 194 74q113 72 234 201q117 123 176 332 q11 40 11 79q0 140 -150 259q-211 170 -389 221q-141 41 -154 45v-14z" />
<glyph unicode="E" horiz-adv-x="915" d="M96 1292v5q0 17 12 34q14 19 35 21l11 2q14 12 32 12q14 2 27 -6q43 4 131 6q119 2 143 2l23 -2q20 0 36.5 -16.5t15.5 -39t-17.5 -38t-38.5 -15.5l-23 3q-20 0 -137 -3q-59 -2 -100 -4q2 -59 4 -264q2 -113 6 -233l49 -2q63 -4 116 -4h34l67 4q20 0 38 -15.5t19 -38 t-14.5 -39t-38.5 -16.5l-67 -4q-18 -1 -36 -1q-57 0 -126 5l-37 2q4 -57 8 -119q15 -235 15 -350v-14q0 -43 2 -70q37 -2 110 -2h9q105 0 217 45l124 53q20 8 42 -1t30 -29q4 -10 4 -20q0 -12 -5 -22q-9 -20 -30 -30l-124 -51q-130 -53 -258 -53h-9q-127 0 -155 8 q-20 4 -33.5 16t-21 23.5t-10.5 34t-3 31.5t1 37t1 30v27q0 113 -14 331q-16 248 -19 465q-2 197 -4 260q-35 8 -41 45z" />
<glyph unicode="F" horiz-adv-x="972" d="M100 1321q-4 9 -4 18q0 11 6 23q10 20 29 29l51 18q36 15 111 15q51 0 119 -7q122 -13 227 -13q26 0 51 1l133 2q20 1 37 -15q18 -16 18 -41q0 -21 -16 -37t-37 -16l-131 -2q-26 -1 -52 -1q-113 0 -241 14q-59 5 -104 5q-23 0 -43 -1v-29q0 -66 16 -276q8 -113 19 -244 l45 4q113 12 155 20l46 11q20 4 39.5 -9.5t23.5 -35t-8 -40t-35 -22.5l-45 -10q-49 -10 -164 -23l-49 -4q6 -68 10 -137q23 -281 25 -352q2 -61 18 -107l21 -51q8 -20 -1 -42q-10 -22 -30 -30q-10 -4 -20 -4q-11 0 -21 6q-20 10 -29 29l-20 53q-25 61 -27 142q-2 70 -22 348 q-6 80 -13 154q-14 12 -16 32t10 37q-10 145 -20 266q-16 215 -17 285v2q-35 2 -45 35z" />
<glyph unicode="G" horiz-adv-x="1083" d="M100 715q12 199 136 375q123 180 227 210q51 16 103 16t104 -16q113 -31 180 -149q55 -100 76 -139l18 -37q10 -18 4 -41t-25.5 -33t-42 -3t-32.5 28l-19 37q-18 37 -75 135q-45 80 -113 98q-38 12 -74.5 12t-72.5 -12q-68 -20 -170 -168q-104 -152 -115 -321 q-3 -47 -3 -90q0 -114 23 -195q33 -113 82 -199q43 -76 123 -110q22 -9 46 -9q52 0 112 43q98 72 133 152q33 72 55 147q4 14 8 31q27 94 35 127v2q-102 -6 -123 -14l-28 -8q-20 -8 -41 2t-28 30.5t2 41t30 28.5l29 8q37 14 155 21l113 8q20 2 37.5 -13.5t19.5 -37.5v-5 q0 -18 -13 -33q-15 -18 -38 -20l-39 -2q35 -12 33 -18q-2 -29 -6 -125q0 -23 -2 -47q0 -102 4 -229q6 -127 18 -160l17 -25q12 -16 9 -38.5t-22 -35.5q-14 -11 -30 -11q-5 0 -10 1q-23 4 -36 21l-18 26q-20 27 -26.5 66t-8.5 123q-2 18 -2 26q0 27 -2 54q-49 -98 -162 -181 q-90 -65 -174 -65q-45 0 -88 18q-117 49 -176 158q-55 96 -92 221q-29 96 -29 226q0 47 4 98z" />
<glyph unicode="H" horiz-adv-x="995" d="M98 811q2 12 11 25q-10 139 -11 247q-1 66 -1 114q0 95 5 116l4 24q6 23 26 35t41.5 7t33.5 -24.5t6 -39.5l-4 -25q-3 -19 -2 -104v-101q0 -102 8 -233q53 -8 188 -8h15q123 0 237 30l125 33q6 2 11 2q1 34 1 73t-1 83v162q1 30 1 50.5t-1 33.5l-3 26q-2 23 12 41 q16 17 38 19h5q19 -1 35 -13q18 -14 19 -36l2 -27q1 -16 1 -39.5t-1 -56.5v-158q1 -48 1 -90.5t-1 -79.5q-4 -72 -8 -178q-3 -69 -3 -156q0 -44 1 -92q2 -72 2 -139.5t-2 -128.5q-3 -79 -3 -118q0 -19 1 -28v-28q2 -23 -13.5 -39.5t-37.5 -17.5h-3q-21 0 -37 14 q-16 16 -18 37v28q-1 11 -1 32q0 42 3 124q3 79 3 169q0 45 -1 93q-2 74 -2 137.5t2 116.5q2 41 4 74l-104 -29q-126 -33 -263 -33h-16q-121 0 -180 6q4 -63 10 -133q27 -291 27 -432v-141q0 -20 -16.5 -36.5t-38 -16.5t-37.5 15t-16 38v139q0 139 -27 426q-8 88 -12 168 q-16 18 -15 43z" />
<glyph unicode="I" horiz-adv-x="342" d="M98 23q-3 8 -3 16q0 21 20 41v8q6 39 8 131v211t-8 277q-5 120 -5 235q0 38 1 76q2 154 16 223l12 66q3 23 23 35q15 9 31 9q5 0 11 -1q22 -4 34 -24q9 -15 9 -30q0 -5 -1 -10l-13 -65q-12 -59 -14 -205q-1 -37 -1 -74q0 -112 5 -231q8 -160 8 -280v-214q-2 -96 -8 -141 q-4 -43 -6 -60q-4 -35 -54 -37h-6q-44 0 -53 27z" />
<glyph unicode="J" horiz-adv-x="1218" d="M98 454q6 21 25.5 32.5t41 5t32.5 -24.5l65 -117q61 -106 176 -219q82 -82 149 -82q12 0 23 3q76 16 105 95q35 100 35 390q0 299 -7 524q-6 211 -8 256q-123 2 -176 10l-55 10q-23 4 -36 22.5t-9 40t23 34.5q14 11 30 11q5 0 10 -1l56 -10q53 -8 200 -9h52q110 0 163 7 l70 8q23 2 40 -12.5t20 -35.5q1 -4 1 -8q0 -17 -12 -32q-14 -19 -37 -21l-69 -8q-57 -6 -162 -8q2 -49 8 -250q6 -227 6 -528q0 -309 -41 -426q-47 -137 -184 -166q-23 -5 -47 -5q-110 0 -226 113q-123 123 -192 244l-66 115q-6 12 -6 26q0 7 2 16z" />
<glyph unicode="K" horiz-adv-x="1056" d="M96 1309v5q0 20 12 35q14 17 36 20t40.5 -11.5t20.5 -36.5l6 -53q4 -51 20 -195q16 -145 23 -336q4 -68 6 -131q12 33 29 68q27 59 61 121q-9 16 -9 30q0 20 19 37q16 16 39 15q29 45 62 92q111 152 176 225q63 70 119 129q37 41 47 57l4 13q5 19 25 31q12 7 26 8 q8 0 16 -2q22 -6 33 -26t4 -42l-4 -14q-4 -10 -8 -19.5t-12 -20t-12.5 -15.5t-18.5 -20.5t-20 -21.5q-55 -61 -119 -131q-61 -68 -166 -215q-37 -51 -68 -98q33 -43 111 -166q94 -147 151 -256q57 -102 109 -184q51 -80 59 -92q8 -8 17 -15l12 -10q16 -14 18 -36q0 -4 1 -7 q1 -17 -11 -33q-14 -18 -36.5 -20t-41.5 12l-12 10q-18 14 -31 33q-12 14 -67 100q-53 84 -111 191q-57 104 -149 250q-45 70 -78 118q-20 -37 -37 -71q-57 -131 -90 -246q-23 -82 -31 -154q-2 -55 -4 -92l-4 -73q0 -6 -2 -13v-24q0 -23 -16.5 -39.5t-38 -16.5t-38 16.5 t-16.5 39.5v28q0 29 7 129q0 25 4 52q0 61 -2 143q-2 164 -11 352q-6 186 -22 328q-14 143 -21 196z" />
<glyph unicode="L" horiz-adv-x="862" d="M96 1329v5q0 20 14 35q16 17 36 19q3 0 6 1q18 1 34 -13q18 -16 19 -39l2 -16q0 -18 10 -155.5t21 -383.5q7 -176 7 -289q0 -45 -1 -81q-4 -74 -4 -130q0 -37 2 -67q2 -33 2 -56.5t-2 -37.5q6 2 14 2q61 2 135 6q72 4 193 16l123 13q23 2 40 -12t19 -36v-6q0 -18 -12 -34 q-14 -18 -37 -21l-121 -10q-125 -12 -199 -16q-72 -4 -135 -9q-34 -2 -55.5 -2t-30.5 2q-35 4 -47 34t-6 52q4 18 10 35q1 9 1 28t-1 48q-2 31 -2 70q0 59 4 135q1 35 1 79q0 111 -7 283q-10 244 -20.5 380t-10.5 155z" />
<glyph unicode="M" horiz-adv-x="1187" d="M96 63l4 46q4 47 28 225t50 340q29 164 80 307q51 145 98 211q45 66 84 94q25 16 45.5 17.5t36 -14t25.5 -31t19 -44t11.5 -38t6.5 -29.5q31 -133 43 -363q2 -43 4 -84q4 16 6 33q25 141 63 250q41 111 107 205q70 98 111 119q36 21 65 21q6 0 12 -1q23 -2 39.5 -16.5 t22.5 -25.5t14 -30q18 -47 21 -149q1 -47 1 -110t-1 -142q-2 -158 -2 -281q0 -127 -3 -215q-2 -90 -4 -131q-2 -39 -2 -72.5v-52.5q0 -16 2 -28l2 -13q2 -23 -11 -41q-14 -18 -36 -20h-5q-19 0 -35 12q-18 14 -21 35v14q-2 14 -4 37v57.5t2 80.5q2 37 4 124q2 86 2 211 q0 127 2 285q1 78 1 140t-1 108q0 82 -12 108q-20 -12 -74 -88q-59 -82 -94 -178q-37 -100 -60 -231q-23 -133 -24 -254q-2 -127 -10 -250q-6 -125 -11 -154v-7t-4 -19.5t-11 -20.5t-23 -10q-4 -1 -8 -1q-13 0 -31 9q-23 10 -33 24.5t-11.5 27t0 27.5t1.5 19 q-10 76 -29 261.5t-31 410.5q-12 221 -39 344q-6 23 -10 39q-12 -14 -25 -33q-37 -53 -84 -184q-49 -135 -75 -289q-27 -160 -49.5 -336t-26.5 -221l-4 -45q-2 -23 -19.5 -37t-39.5 -12q-24 2 -38 20q-13 15 -12 34v5z" />
<glyph unicode="N" d="M98 1214l2 21q4 23 21.5 37t40 11t36 -21.5t11.5 -40.5l-4 -21q0 -27 8 -207q18 57 41 111q92 213 213 272q41 19 77 19q30 -1 56 -13q59 -28 88 -104q49 -129 49 -393q0 -254 4 -428q2 -172 7 -258q4 -66 5 -99q0 -11 -1 -18q-2 -12 0 -16l6 -17q2 -8 2 -16 q0 -13 -6 -25q-10 -20 -30 -28q-9 -3 -19 -3q-12 -1 -23 5q-20 10 -27 30l-6 17q-10 25 -6 61q0 20 -4 103q-4 88 -7 263t-3 429q0 244 -41 354q-16 43 -30.5 49t-43.5 -10q-84 -41 -160 -217q-72 -166 -96 -365q-2 -27 -4 -55q-12 -131 -14 -238q8 -201 10 -280l3 -7 t5 -18.5t4 -25t1 -26.5t-6 -25.5t-18.5 -20.5t-31.5 -12q-43 -6 -59.5 8t-10.5 31l6 18q-2 31 -10 195q-3 49 -3 104q0 28 1 57l-4 91q-4 121 -8 227q-6 137 -13 254q-9 161 -9 216q0 19 1 25z" />
<glyph unicode="O" horiz-adv-x="983" d="M98 553q-2 33 -2 65q0 211 101 406q115 229 272 229q13 0 27 -2q156 -16 247 -114l78 -84q21 -23 13 -54q8 -20 14 -41q25 -72 35 -143q5 -33 4 -75q0 -51 -6 -117q-14 -119 -43 -217q-31 -100 -105 -211q-80 -121 -217 -166q-35 -11 -68 -11q-117 0 -217 134 q-115 154 -133 401zM207 559q16 -215 112 -342q67 -91 134 -91l30 5q100 33 160 123q66 98 90 184q27 88 39 197q7 64 7 111q0 31 -3 55q-10 59 -31 123q-16 47 -26 59q-23 23 -35 39l-8 14q-6 9 -8 21l-4 6q-63 68 -181 82q-5 1 -10 1q-93 0 -180 -171q-88 -172 -88 -357 q0 -30 2 -59z" />
<glyph unicode="P" horiz-adv-x="1036" d="M100 653q8 23 31 33q-8 154 -14 287q-3 84 -3 144q0 106 9 140l2 7q-8 8 -10 16q-8 23 2 43t30 27l33 12q43 14 195 14h6q154 0 348 -102q211 -110 211 -252v-8q-4 -137 -186 -291q-176 -150 -312 -168q-70 -10 -122 -10q-40 0 -70 6q2 -39 4 -82q23 -285 31 -342 q6 -53 6 -76v-10v-14q-1 -23 -19 -37q-15 -12 -34 -13q-2 1 -6 1q-22 2 -37 19t-13 40v14q0 12 -6 62q-8 59 -29 348q-6 61 -10 121l-6 2q-19 8 -29 28q-5 11 -6 23q0 9 4 18zM225 977q7 -143 17 -313q12 -2 26 -7q20 -4 50 -4q45 0 110 9q102 14 254 143q145 123 149 213 q2 80 -153 160q-170 90 -297 90h-6q-82 0 -139 -6l-9 -31q-6 -22 -6 -98q0 -60 4 -156z" />
<glyph unicode="Q" horiz-adv-x="1251" d="M102 788q20 168 166 338q150 176 281 189q26 2 50 2q94 0 163 -37l72 -39q18 -10 26 -33q4 -8 8 -14q10 -16 43 -66q35 -51 70 -112q39 -70 51 -154q8 -55 8 -115q0 -30 -2 -61q-4 -88 -8 -160q-4 -80 -39 -170q-33 -84 -84 -159q18 -20 37 -41q121 -137 158 -179l39 -40 q15 -15 15 -37q0 -26 -18 -42q-15 -13 -36 -13h-2q-23 1 -39 18l-37 41q-39 41 -162 178q-14 16 -24 29q-39 -35 -86 -62q-71 -39 -143 -39q-29 0 -58 6q-92 20 -213 107q-127 88 -193 297q-49 151 -49 280q0 45 6 88zM209 774q-4 -34 -4 -70q0 -114 43 -251 q55 -174 151 -242q104 -74 174 -88q18 -4 36 -4q44 0 89 24q37 20 68 52q-35 41 -47 61l-19 31q-10 20 -5 41.5t24.5 33t41 6t34.5 -25.5l16 -31q4 -4 23 -28q35 55 57 114q29 74 31 135q4 72 10 160q1 24 1 47q0 57 -7 107q-10 66 -39 117q-33 57 -66 104q-33 51 -45 70 l-6 8q-4 2 -12 4l-19 2q-39 4 -47 43q-38 14 -89 14q-21 0 -44 -2q-88 -8 -207 -149q-125 -145 -143 -283z" />
<glyph unicode="R" horiz-adv-x="1040" d="M96 1044q4 201 4 240v41q0 23 16.5 39t38 16t38 -16t16.5 -39q41 -2 162 -12q164 -16 301 -113q72 -50 100 -112q13 -29 12 -62q0 -36 -16 -76q-51 -102 -236 -252q-33 -25 -61 -49q31 -31 102 -112q100 -117 197 -246q98 -129 131 -178l35 -50q9 -14 9 -29q0 -4 -1 -10 q-4 -22 -22 -36q-14 -10 -30 -10q-6 0 -12 2q-22 4 -34 22l-33 49q-33 47 -128 174t-193 240q-66 76 -105 115q-47 -39 -61 -56l-37 -37q-18 -18 -37 -18q-13 0 -27 8q14 -231 19 -311q0 -12 2 -32.5t3 -30t0 -22.5t-3 -23.5t-6 -20.5q-10 -27 -43 -36t-54 5l-14 8 q-18 12 -23.5 34t5.5 42q10 14 26 21q0 23 -2 49q-6 90 -24 385q-15 255 -15 439v60zM205 1042v-44q0 -180 14 -427l29 29q20 23 76 68q2 16 10 26q18 23 45 21q37 29 86 69q166 133 205 215q9 10 9 24q0 10 -5 23q-12 29 -66 66q-113 80 -246 92q-102 8 -153 13 q-2 -63 -4 -175z" />
<glyph unicode="S" horiz-adv-x="1062" d="M98 334q-2 7 -2 14q0 15 8 28q12 19 34 24.5t41.5 -7t23.5 -33.5l2 -6q29 -37 162 -182q109 -117 220 -117q37 0 75 13q158 55 190 168q6 19 6 41q0 102 -131 255q-168 201 -334 271q-215 92 -215 232q0 135 224 233q99 43 179 44q105 0 179 -73q115 -111 147 -188 l29 -66q8 -20 0 -41.5t-28.5 -30t-42 0t-29.5 28.5l-29 68q-25 55 -123 151q-42 41 -107 41q-58 0 -133 -33q-86 -37 -122.5 -72.5t-34.5 -62.5q2 -68 147 -131q193 -80 377 -301q155 -184 156 -328q0 -37 -11 -71q-49 -164 -258 -238q-57 -19 -113 -19q-155 0 -296 152 q-29 29 -62.5 65t-51 53t-35 37.5t-27 36t-13.5 29.5z" />
<glyph unicode="T" horiz-adv-x="1216" d="M100 1126q-4 10 -4 21t4 21q8 22 29 30l57 23q66 27 279 51q63 8 123 12q16 16 39 19q20 0 39 -15q53 2 105 2t103 -2l195 -6q23 0 38 -16q14 -15 14 -37q1 -24 -17 -40q-16 -15 -39 -15l-195 6q-45 2 -91 2t-93 -2v-6q4 -78 16 -396q12 -317 29 -491q14 -178 17 -244 v-10q6 -14 6 -29l-2 -16q-2 -4 -4.5 -11.5t-11.5 -20.5q-9 -12 -19 -20q-7 -5 -18 -6q-5 0 -9 1q-16 3 -33.5 21.5t-21.5 33t0 31t4 22.5q0 63 -16 237q-16 176 -29 498q-12 317 -16 395v5q-49 -4 -101 -11q-199 -20 -248 -43l-57 -22q-20 -8 -42 0t-30 28z" />
<glyph unicode="U" horiz-adv-x="1132" d="M98 1311l6 61q2 20 20 36q16 14 34 13h4q22 -2 37.5 -20.5t13.5 -38.5l-6 -62q-2 -17 -2 -54q0 -86 10 -279q12 -272 86 -539q72 -254 172 -326q60 -42 106 -42q23 0 42 10q27 12 62.5 77.5t66.5 178.5q70 240 94 479q16 158 30 276q-3 85 -3 144q0 81 6 114q0 4 1 10.5 t4 24t11 25.5q7 8 23 18q8 5 18.5 5t23.5 -5q6 -2 12.5 -5t10.5 -6l8 -6t6 -7t3 -6.5t2 -5.5l1 -3q4 -10 6.5 -19t2.5 -23.5t1 -22.5t-1 -28.5t-3 -29t-5.5 -36t-6.5 -39.5q-6 -46 -12 -103q6 -152 18 -272q2 -37 7 -72q18 -154 20 -346q0 -188 4 -299l4 -111v-5 q0 -20 -14 -34q-16 -16 -38 -17h-2q-20 1 -36 15q-16 16 -18 37l-4 111q-4 113 -4 303q-2 82 -5 156q-25 -123 -61 -248q-37 -133 -80 -212t-104 -110q-43 -23 -90 -23q-79 0 -168 64q-133 94 -215 385q-78 276 -91 564q-10 200 -10 290q0 39 2 58z" />
<glyph unicode="V" horiz-adv-x="1146" d="M100 1245q-4 9 -4 18q0 11 6 23q10 21 30 29q10 4 19 4l21 -5q20 -9 29 -32l20 -51q20 -55 84 -252q66 -193 121 -352q55 -158 96 -271q43 -117 60 -182q2 4 4 10q25 55 35 105q12 55 32 117q18 57 45 149q25 92 58 188q33 92 53 156q20 68 49 139q29 72 47 113 q16 39 29 80l12 47q6 20 26 32q13 8 26 7q6 0 14 -2q22 -5 34 -25q8 -13 7 -27q0 -7 -2 -14l-13 -47q-14 -49 -34 -94q-16 -41 -46 -109q-27 -70 -47 -133q-20 -66 -53 -159q-31 -90 -55 -183q-27 -92 -47 -151q-18 -57 -29 -109q-14 -59 -41 -123q-27 -59 -45 -100 q-2 -2 -4 -6t-11.5 -15.5t-17.5 -19.5t-20.5 -15.5t-23.5 -8.5h-2q-10 0 -22 8t-22 28q-12 20 -20 49q-6 23 -21 86q-16 59 -55 170q-43 115 -99.5 274t-119.5 355q-63 195 -84 246z" />
<glyph unicode="W" horiz-adv-x="1462" d="M96 1321v5q0 18 12 34q14 18 35 22t39.5 -10t22.5 -35l10 -75q12 -72 55 -246q45 -176 105 -406q57 -227 108 -370q14 -45 29 -78q0 4 2 8q39 150 84 332q43 182 80 358q35 176 49 281q2 14 4 38.5t3 36t9.5 26.5t22.5 28q23 16 48.5 10t35.5 -20q6 -10 11 -21.5 t10.5 -30t7.5 -32t8 -45t12 -54.5q31 -152 41 -315q10 -160 35 -336q25 -170 61 -266q6 -16 13 -33q14 31 26 70q20 59 37 125q18 63 18 84q2 25 5 59q2 35 8 127q6 96 26 225q18 127 31 187q10 55 19 114q8 61 12 92t8 54t6 51q4 41 12 61l7 15q10 20 30 27q10 3 20 3 l22 -4q20 -7 28 -29q4 -11 4 -21.5t-4 -20.5l-6 -13q-2 -8 -4 -28q-4 -33 -8 -58q-2 -25 -9 -53q-4 -31 -12 -90q-6 -63 -18 -123q-12 -55 -31 -180q-18 -125 -25 -215q-6 -92 -8 -127q-2 -37 -4 -62q-2 -31 -20 -102q-18 -70 -39 -133q-23 -66 -52 -113l-5 -8t-6 -10 t-6 -10.5t-8 -10.5t-10.5 -10t-11.5 -8t-13 -6q-7 -4 -12 -4h-3q-6 2 -19 0q-20 2 -34.5 11t-24.5 26.5t-16.5 30.5t-13.5 37t-11 34q-41 106 -68 291q-25 180 -35 344q-6 109 -22 213q-12 -59 -25 -131q-37 -178 -82 -361.5t-84 -333.5q0 -2 -7 -35.5t-13 -50t-20 -41.5 q-14 -26 -34 -34q-9 -3 -19 -3q-13 0 -27 5q-25 6 -39 30q-25 41 -78 191q-53 145 -113 379q-59 229 -102 405q-45 180 -57 256z" />
<glyph unicode="X" horiz-adv-x="1210" d="M116 1346q18 14 40 12t37 -21l57 -69q57 -72 178 -256q80 -123 162 -248q98 141 209 295q135 190 178 246l41 53q14 18 36 21q4 1 9 1q17 0 31 -11q18 -13 21 -35q1 -4 1 -8q0 -18 -12 -34l-41 -53q-41 -55 -176 -244q-123 -172 -234 -329q6 -8 13 -19q119 -182 211 -311 q96 -133 139 -207q37 -61 47 -74l14 -14q14 -16 13.5 -38.5t-17 -38t-39 -14.5t-39.5 17l-12 15q-16 18 -59 94q-41 68 -133 196q-92 125 -205 297q-84 -125 -129 -211q-59 -109 -101 -192q-41 -88 -67 -141l-25 -52q-10 -18 -32 -26q-10 -4 -18 -4q-10 0 -22 6 q-20 10 -27 31.5t1 42.5l27 51q25 51 65 137q43 88 102 199q55 104 162 258q-92 143 -186 284q-117 178 -172 248l-55 70q-13 16 -13 36q1 25 20 40z" />
<glyph unicode="Y" horiz-adv-x="1046" d="M97 1386q3 21 21 34q15 11 32 11q4 0 8 -1q22 -3 37 -21l22 -31q25 -33 90 -168q66 -129 127 -258q57 -121 103 -188q23 41 51 106q18 51 39 97q14 33 28 61q4 10 13 25q6 16 14 32q31 66 61 129q12 25 25 52q39 74 57 106q4 8 9 14q2 4 9 7.5t23.5 11.5t30.5 12t28.5 5 t21.5 -8q4 -6 4 -16q0 -6 -1 -14q-4 -25 -26 -61l-2 -2q-20 -45 -64 -133q-8 -14 -16 -31q-41 -80 -76 -151q-20 -43 -39 -86q-16 -37 -33 -74q-2 -9 -6 -17q-14 -35 -26 -69q-6 -20 -13 -41q-35 -100 -49 -174q-16 -90 -33 -176q-16 -82 -18 -129q-2 -55 -6 -97 q-4 -41 -8 -65q-2 -18 -3 -29v-14q0 -23 -16 -39t-38.5 -16t-38 16t-15.5 39v14q0 20 4 47q4 20 6 58q4 39 6 90q4 57 21 145q16 86 33 176q8 35 18 76q-35 14 -63 59q-49 74 -113 205q-61 129 -125 258q-63 125 -82 152l-23 31q-10 14 -10 31q0 4 1 9z" />
<glyph unicode="Z" horiz-adv-x="1140" d="M96 1274q2 22 20 36q16 13 35 13h5l28 -2q27 -4 123 -12q94 -10 207 -17q113 -6 186 -12q47 -3 89 -3q21 0 42 1q66 2 101 2t61 -4q31 -6 45 -24q10 -12 9 -24q1 -4 -1 -10q-6 -18 -15 -35.5t-19 -27.5l-11 -12q-41 -43 -122 -142q-82 -102 -142.5 -190t-144.5 -240 q-86 -154 -148 -243q-61 -92 -106 -142q-31 -33 -57 -67h14q29 2 60 2q47 0 100 -4q88 -6 151 -19q55 -12 119 -16q66 -6 121 -6h98l43 2q23 0 39 -15.5t16 -38t-15 -39t-38 -16.5l-43 -2h-102t-127 6q-70 4 -133 19q-57 12 -138 16q-48 4 -91 4q-28 0 -54 -2 q-68 -2 -111 -6q-2 0 -8 -2t-21.5 -2t-26.5 4t-20.5 19.5t-9.5 39.5q0 8 2.5 16.5t5.5 13.5t7 9t6 6.5t6 4.5l4 2q12 8 43 49q37 47 80 96q41 43 96 127q59 88 144 238q86 156 149.5 248t147.5 196q49 61 84 100h-43q-23 -1 -46 -1q-47 0 -96 3q-74 6 -186 13 q-115 6 -213 16q-94 8 -123 12l-27 2q-23 2 -37 20q-12 16 -12 35v5z" />
<glyph unicode="a" horiz-adv-x="872" d="M102 250q-5 41 -5 93q1 67 9 151q16 150 62 280q49 139 141 199q61 40 118 39q38 0 73 -17q70 -33 123 -84q31 14 50 14q7 0 13 -2q20 -8 25 -28l4 -21q2 -18 2 -65q1 -16 1 -36.5t-1 -45.5q2 -39 2 -84q0 -59 4 -121q2 -53 6 -108q8 -115 19 -205q8 -86 16 -121l10 -41 q2 -7 2 -14q0 -13 -7 -25q-11 -20 -33 -26q-8 -2 -15 -3q-13 -1 -25 7q-20 12 -26 34l-11 41q-12 43 -20 138q-6 53 -10 114q-14 -31 -31 -63q-61 -115 -133 -189q-81 -81 -158 -81h-6q-88 4 -141 98q-43 76 -58 172zM209 266q12 -78 45 -135q25 -41 51 -43h3q32 0 79 49 q61 63 115 164q53 102 80 197q4 18 8 37q16 72 18 139v53v51q-8 4 -12 8l-47 48q-41 39 -94 63q-12 5 -25 5q-27 0 -61 -21q-61 -39 -99 -144q-43 -117 -57 -254q-8 -80 -8 -140q0 -44 4 -77z" />
<glyph unicode="b" d="M96 1176q0 139 2 184l2 43q2 19 20 35q16 15 36 15h2q22 -1 37.5 -18.5t13.5 -39.5l-2 -41q-2 -41 -2 -178q0 -135 12 -367l4 -90q8 33 17 59q35 115 88 158q48 37 116 37q15 0 31 -2q86 -8 166 -99q72 -84 104 -194q19 -67 18 -148q0 -52 -7 -108q-18 -147 -86 -246 q-66 -96 -115 -129q-51 -33 -117 -35h-14q-60 0 -109 31q-33 20 -55 41q0 -31 -2 -47q4 -2 6 -5t-3 -16.5t-28 -29.5q-23 -13 -38 -13q-11 1 -19 7q-18 16 -22 49l-7 30q2 29 5 70q-2 10 -3 23q-4 80 -16 249q-12 172 -23.5 403.5t-11.5 371.5zM262 215q23 -2 35 -16l22 -23 q16 -18 52 -41q29 -16 61 -16q35 2 62 20q33 20 86 99q51 78 67 198q6 49 6 93q0 65 -14 118q-27 88 -82 154q-51 57 -96 63q-8 1 -16 1q-34 0 -52 -15q-27 -20 -53 -102q-27 -94 -45 -211q-12 -74 -19 -131q-4 -39 -6 -72q-4 -64 -8 -119z" />
<glyph unicode="c" horiz-adv-x="839" d="M113 291q-17 88 -17 183q0 100 19 206q39 213 131 309q84 85 187 85q20 0 42 -3q125 -23 191 -127q59 -94 69 -153l10 -50v-6q0 -19 -10 -35q-12 -18 -34.5 -22t-41 9t-22.5 36l-8 49q-6 37 -54 115q-41 63 -118 76q-12 2 -24 2q-60 0 -109 -52q-70 -72 -103 -251 q-17 -97 -17 -187q0 -85 15 -164q29 -145 115 -186q39 -18 75 -18q41 0 78 24q82 55 95 80l16 37q10 18 31.5 25.5t42 -2t28 -31t-3.5 -41.5l-18 -37q-25 -49 -131 -121q-66 -44 -137 -44q-59 0 -121 30q-137 66 -176 264z" />
<glyph unicode="d" d="M98 563q8 178 117 271q74 63 156 63q46 0 94 -20q70 -29 113 -58q-10 72 -27 174q-16 104 -29 181q-8 56 -8 99q0 22 2 40q3 31 3 50q0 9 -1 15q2 2 -1 20q-3 16 13 34q13 14 41 15q6 0 13 -1q12 -2 20 -6t13.5 -9.5t7.5 -8.5t4 -7l2 -4q16 -29 28 -104q8 -66 19 -181 q10 -113 20 -264q4 -71 4 -147q0 -6 3 -15q8 -68 14 -120q6 -55 8 -93q0 -35 6 -77q4 -47 8 -105q2 -53 6.5 -98t8.5 -82q4 -39 4 -59q0 -25 -8 -50l-7 -18q-7 -20 -27 -32q-13 -7 -25 -7l-15 3q-20 7 -31.5 26.5t-3.5 42.5l4 18q4 10 4 17q0 14 -4 49q-4 37 -8 84 q-2 39 -6 84q-6 -14 -12 -29q-47 -94 -127 -170q-86 -82 -158 -90q-10 -1 -20 -1q-77 0 -130 85q-49 76 -71 203q-19 92 -19 206q0 37 2 76zM207 559q-1 -35 -1 -67q0 -108 15 -191q20 -106 58 -166q22 -35 41 -35h2q37 4 96 62q66 63 106 141q35 70 54 207q2 16 4 31 q6 57 8 114q-16 4 -29 19l-29 39q-18 27 -108 63q-26 10 -50 10q-46 0 -89 -36q-72 -59 -78 -191z" />
<glyph unicode="e" horiz-adv-x="753" d="M96 463v41q6 104 25 196q16 94 49 174q35 88 80 132q49 49 129 57q37 5 63.5 5t42.5 -5q43 -14 76 -74q23 -43 24 -90q0 -15 -3 -31q-6 -53 -43 -143q-37 -94 -105 -170q-68 -74 -123 -109l-49 -30q-26 -18 -55 -2q4 -68 22 -152q27 -135 58 -174q23 -27 37 -27 q29 0 69 25q45 29 107 90l67 70q14 16 37 16t39 -15.5t16 -38t-14 -38.5l-67 -68q-70 -74 -129 -108q-66 -39 -121 -41h-4q-66 0 -121 67q-49 57 -80 220q-27 127 -27 223zM207 508l45 31q43 27 100 90q57 61 86 135q31 78 37 119q1 6 1 13q0 22 -11 42q-8 14 -14 20 q-6 1 -15 1q-17 0 -45 -3q-43 -6 -65 -28q-29 -29 -56 -94q-29 -70 -43 -152q-14 -80 -20 -174z" />
<glyph unicode="f" horiz-adv-x="776" d="M96 970q2 21 20.5 35.5t41.5 12.5l47 -6q19 -3 52 -3q16 0 36 1q0 78 2 147q8 125 49 193q49 82 145 84h7q83 0 131 -43l37 -33q17 -15 17 -40q0 -21 -15 -36q-15 -16 -37.5 -18t-38.5 14l-35 31q-16 16 -54 16h-9q-37 0 -56 -31q-27 -45 -33 -143q-2 -63 -2 -139l84 4 q23 0 40.5 -15.5t17.5 -38t-15.5 -39t-38.5 -16.5l-86 -4q3 -108 3 -235v-64q-4 -168 -5 -285q-2 -117 -8 -208q-6 -92 -10 -115l-2 -23q-4 -23 -23 -36q-15 -11 -32 -11q-3 0 -8 1q-21 3 -34.5 21.5t-11.5 41.5l4 20q2 20 9 109q6 88 8 203q0 117 4 284q1 54 1 105 q0 101 -3 190q-22 -1 -41 -1q-37 0 -61 3l-50 6q-20 2 -35 21q-12 16 -12 34v6z" />
<glyph unicode="g" horiz-adv-x="940" d="M100 526q18 195 76 301q55 102 119 160q70 68 151 70h7q68 0 159 -37q61 -25 97 -41q2 31 8 47q2 8 18.5 17.5t36.5 14.5q7 2 14 2q12 0 23 -5q18 -8 22 -33q4 -18 11 -74q3 -26 3 -62.5t-3 -82.5q-5 -56 -19 -119v-41v-117q0 -86 2 -176q2 -76 2 -146t-2 -134 q-2 -133 -34 -226q-33 -96 -113 -166q-82 -70 -201 -81q-26 -3 -51 -3q-87 0 -154 33l-69 37q-18 10 -25.5 31.5t2.5 41t31.5 27t42.5 -3.5l70 -36q41 -22 99 -22q20 0 42 3q86 8 141 57q59 49 82 117q27 76 29 195q1 62 1 131t-1 145q-47 -131 -131 -217q-88 -89 -204 -89 q-14 0 -28 1q-135 16 -207 154q-51 97 -51 241q0 41 4 86zM209 516q-4 -41 -4 -77q0 -116 39 -191q47 -86 123 -94q9 -1 17 -1q68 0 124 56q74 76 113 194q27 82 49 150q14 45 26 84q10 31 19 61q0 88 -4 158l-23 12q-31 16 -115 50q-76 30 -121 30h-3q-39 -2 -80 -39 q-49 -47 -99 -135q-45 -84 -61 -258z" />
<glyph unicode="h" d="M96 53q0 27 10 129q12 96 19 273q3 87 3 169t-3 160q-8 162 -19 349q-6 121 -6 184q0 38 2 55l4 41q4 23 22 37q14 12 32 12q4 0 8 -1q22 -3 35.5 -21.5t11.5 -40.5l-6 -41q-1 -11 -1 -33q0 -56 7 -186q10 -188 16 -348q2 -10 2 -25q0 2 3 4q47 113 135 178q80 61 147 61 q10 0 19 -1q84 -10 116 -95q27 -61 52 -215q27 -152 38 -264q9 -103 9 -177v-15q-2 -76 -2 -121q0 -31 4 -41l4 -12q4 -11 4 -21q0 -13 -5 -23q-9 -20 -31 -27q-9 -3 -18 -3q-12 0 -24 5q-20 9 -29 30l-4 14q-10 23 -10 78q0 47 2 123v26q0 66 -8 154q-12 109 -37 256 q-23 143 -43 192q-12 27 -33 29h-5q-29 0 -81 -41q-66 -47 -100 -131q-41 -94 -60 -205q-20 -117 -38 -229q-16 -111 -25 -191q-2 -18 -51 -55q-32 -23 -48 -23q-18 0 -18 27z" />
<glyph unicode="i" horiz-adv-x="337" d="M96 1332q0 22 16 37t38 15t38 -14l7 -6q16 -16 16 -38.5t-15.5 -38t-39 -15.5t-37.5 14l-6 6q-17 16 -17 40zM109 983q-1 5 -1 10q0 15 9 29q11 20 33 24l12 2q14 0 28 -10q18 -12 25 -34l6 -31q8 -37 10 -152q1 -56 1 -120.5t-1 -139.5q-2 -145 -2 -242q2 -96 7 -169 q4 -76 6 -119v-43q2 -20 -13.5 -38t-38 -18t-39 15.5t-18.5 38.5v43q-2 41 -6 114q-4 76 -6 174q0 98 2 246q1 74 1 137.5t-1 118.5q-2 104 -8 131z" />
<glyph unicode="j" horiz-adv-x="632" d="M98 -377q-2 7 -2 14q0 15 8 27q11 19 33.5 25t40.5 -6l10 -7q10 0 29 2q33 4 70 27q29 16 39 55q16 53 26 131q8 80 15.5 196t7.5 224q0 111 2 275q0 164 10 278q0 16 2 41t3 35t3 25.5t5 24.5t8 20l8 14q10 18 31.5 25.5t41 -2t26.5 -31t-3 -41.5l-4 -10 q-6 -25 -12 -109q-10 -111 -11 -272q-2 -162 -2 -273t-7 -230.5t-17 -203.5q-10 -86 -29 -149q-23 -78 -88 -117q-55 -35 -113 -41q-16 -2 -29 -2q-41 0 -63 14l-14 8q-20 10 -25 33zM424 1331q0 23 15.5 38t38 15t38.5 -14l6 -6q17 -17 17 -40q0 -21 -17 -36 q-16 -16 -38.5 -16t-39.5 14l-6 6q-14 16 -14 39z" />
<glyph unicode="k" horiz-adv-x="872" d="M98 1200q4 137 4 189v51q0 23 15.5 38t38 15t39 -15.5t16.5 -37.5v-51q0 -53 -4 -193q-2 -55 -2 -115q0 -90 4 -192q4 -130 4 -261v-87q37 39 109 125q88 104 198 235q113 131 139 160l25 26q16 16 38 17q22 0 38 -14q17 -15 17 -42q0 -21 -13 -34l-27 -29 q-25 -25 -133 -154q-106 -125 -190 -227l22 -31q31 -39 102.5 -139t120.5 -174q49 -76 66 -104q14 -27 23 -41l10 -17q12 -18 7 -40.5t-24.5 -34t-41 -6t-33.5 23.5l-11 16q-10 16 -26 45q-14 27 -60 99q-47 72 -118.5 170t-100.5 137l-8 12q-41 -45 -68 -69 q-31 -27 -38 -43l-13 -25q-4 -10 -12 -16v-121q2 -123 2 -176v-54q0 -20 -16.5 -36.5t-38 -16.5t-38 16.5t-16.5 38.5v52q0 51 -2 174q0 123 2 297v86q0 129 -4 258q-4 104 -4 197q0 62 2 118z" />
<glyph unicode="l" horiz-adv-x="317" d="M96 771.5q0 164.5 4 309.5q4 106 4 183v49q0 92 -2 119l-2 28q0 23 16 40q14 18 36 19h3q21 -1 37 -15q18 -16 17 -38l2 -28q2 -29 2 -123v-49q0 -79 -4 -189q-4 -143 -4 -306t6 -269q4 -106 7 -213t3 -168q1 -30 1 -51.5t-1 -34.5v-25q-3 -23 -19 -38q-15 -14 -36 -14 h-2q-22 1 -37.5 17.5t-13.5 38.5v25q1 12 1 32.5t-1 49.5q0 57 -4 164q-2 106 -7 213q-6 109 -6 273.5z" />
<glyph unicode="m" horiz-adv-x="1148" d="M98 18l2 17q4 16 9 117q5 80 5 154q0 25 -1 50q-3 67 -3 157q0 45 1 97q0 152 -2 267q-2 119 -3 149v33q0 23 15.5 38t38 15t39 -15.5t16.5 -37.5v-33q0 -25 2 -108q6 8 14 16q57 57 105 86q55 35 106 35q55 0 109 -41q43 -35 76 -88q20 33 49 55q55 49 127 86 q47 24 85 24q46 0 81 -34q47 -47 69 -176q14 -92 15 -207q1 -30 -1 -60q-4 -152 -12 -274q-4 -127 -8 -181.5t-8 -80.5q-4 -29 -10 -51l-6 -19q-6 -20 -25.5 -31.5t-41 -4t-32 26.5t-4.5 40l4 18q4 14 9 35q2 23 6 74q4 53 8 178q6 127 12 274q1 28 1 54q0 106 -13 192 q-16 92 -39 117q-8 6 -39 -10q-61 -31 -109 -72q-39 -35 -61 -106q-4 -16 -10 -39q2 -16 4 -31q7 -74 7 -153q0 -53 -3 -107q-6 -103 -6 -164v-27q2 -63 4 -86q2 -31 -2 -61q-4 -18 0 -43q6 -2 11 -7t1 -22.5t-33 -38.5q-27 -14 -45 -14q-10 0 -18 4q-20 14 -23 41l-6 29 q-12 51 -20 180q-4 64 -4 138.5t4 160.5q4 121 20 205q-6 37 -14 63q-6 25 -14 41q-23 41 -52 64q-25 20 -43 20q-20 0 -49 -18q-37 -23 -84 -72q-43 -43 -55 -92q-16 -59 -16 -90l-2 -37q0 -23 -17 -37q-1 -48 -1 -91q0 -86 3 -151q1 -33 1 -68q0 -70 -5 -145 q-6 -115 -10 -135l-4 -14q-3 -23 -23 -35q-14 -8 -29 -8q-7 0 -13 1q-22 4 -34 24q-8 13 -8 27q0 7 2 13z" />
<glyph unicode="n" horiz-adv-x="897" d="M98 1038q-2 7 -2 14q0 16 8 28q12 18 34 23q6 1 13 1q15 0 29 -8q20 -12 23 -35l14 -60q14 -63 16 -235q47 109 127 203q51 61 87 91t75 36q16 3 32 3q43 0 87 -20q59 -27 96 -84q31 -53 49 -149q15 -87 15 -164v-10q-1 -39 -1 -85.5t1 -99.5v-36q0 -89 -8 -162 q-8 -86 -17 -135q-6 -43 -8 -58q0 -8 2 -16q4 -20 2 -45v-17q0 -23 -17.5 -38t-39 -15t-36.5 17.5t-15 37.5v19q2 12 0 22q-4 18 -5 41q2 18 11 68q6 45 16 131q6 66 6 144v40q-1 54 -1 101.5t1 87.5v18q0 64 -12 135q-14 76 -35 111q-18 29 -48 42t-56 9q-4 -2 -16.5 -10 t-35 -29.5t-47.5 -50.5q-80 -94 -123 -207q-43 -117 -55 -211q-14 -98 -18 -184q-2 -59 -4 -111q2 -51 2 -75q0 -12 1 -23.5t0 -20t-7 -22.5q-8 -20 -21.5 -25.5t-28 1t-26.5 15.5t-21 19l-8 8q-1 9 -1 31t1 56v38q0 68 -2 181q-2 66 -4 127q-2 133 -2 254q-2 174 -14 227z " />
<glyph unicode="o" horiz-adv-x="849" d="M96 516v39q0 96 8 182q12 121 90 201t209 100q44 7 80 8q77 0 121 -34q15 -11 27 -19q25 -6 35 -26l14 -23q14 -25 25 -53q8 -25 20 -64q14 -41 21.5 -87t7.5 -103v-18q0 -49 -9 -103q-10 -59 -22 -104q-10 -43 -25 -97q-16 -61 -51 -122.5t-78 -104.5q-43 -45 -112 -80 q-53 -25 -101 -25q-26 0 -49 7q-68 23 -100 76q-27 41 -55 112q-31 72 -43 148q-10 72 -13 190zM205 516q2 -109 12 -174q8 -61 35 -123q27 -61 47 -96q12 -20 41 -29q8 -2 17 -2q22 0 51 14q53 25 84 58q33 33 60.5 82t39.5 96q14 55 26 98q10 39 19 95q8 53 8 100 q0 51 -6 90q-6 37 -16 70q-13 34 -21 59q-12 8 -16 20l-8 19q-8 10 -37 33q-17 12 -56 12q-27 0 -65 -6q-94 -14 -146.5 -68.5t-60.5 -136.5q-8 -83 -8 -174v-37z" />
<glyph unicode="p" horiz-adv-x="901" d="M98 735q-2 109 -2 176t2 90l4 46q2 23 20 37q15 12 33 12h5q22 -2 37.5 -19.5t13.5 -38.5l-4 -45q-2 -33 -2 -174q31 61 63 99q51 57 129 102q80 45 147 45h11q76 -4 137 -68q55 -55 80 -127q23 -68 31 -153q3 -31 3 -65q0 -60 -9 -128q-14 -100 -33 -190 q-23 -100 -64 -162q-43 -59 -88 -98q-45 -37 -98 -64q-54 -28 -115 -28h-12q-63 2 -125 26q-14 6 -26 15q-2 -68 -9 -138q-2 -12 -2 -26v-13q4 -135 6 -174q0 -2 4.5 -6t2.5 -13t-13 -26q-12 -23 -27 -23q-1 -1 -2 -1q-14 0 -27 13t-25.5 29.5t-18.5 30.5l-6 15q-5 36 -5 86 q0 38 3 84q-4 112 -8 307q-2 12 -3 20l-2 35q0 8 2 19v8q-2 74 -2 84q-4 215 -6 401zM233 352q3 -96 5 -196q27 -29 65 -47q45 -16 88 -19q39 0 74 16q43 20 78 52q35 29 67 75q31 45 47 123q18 86 31 183q9 60 9 112q0 29 -3 56q-6 74 -24 127q-18 51 -56 88q-31 33 -65 34 h-5q-37 0 -91 -30q-66 -37 -103 -80q-39 -43 -76 -139t-38 -168q-3 -64 -3 -145v-42z" />
<glyph unicode="q" horiz-adv-x="1024" d="M96 459q2 170 47 289q49 127 191 218q134 85 247 85h15q63 -4 104 -19q2 10 5 21q-2 2 -3.5 3t-3.5 6t0 10t10.5 14.5t22.5 17.5q19 11 33 11q18 0 28 -18q17 -29 17 -67v-8v-45q-2 -23 -4 -49q6 -29 6 -62l-4 -57q0 -14 -10 -31q0 -10 -2 -20q0 -17 -2 -33q0 -23 -2 -43 q-2 -84 -7 -178q-4 -125 -6 -271q-6 -258 -22 -407q-2 -14 -2 -29q8 8 14 19l66 80q14 16 36.5 18t39 -11.5t19.5 -36.5q1 -3 1 -7q0 -18 -12 -33l-66 -78q-66 -82 -102 -119q-6 -2 -15.5 -7t-32.5 -11q-21 -5 -36 -5h-4q-17 1 -28 15t-5 47q4 23 20 168q14 147 21 402v22 q-23 -35 -47 -70q-63 -84 -136 -141q-72 -59 -149 -59q-12 0 -25 2q-100 12 -163 162q-54 131 -54 299v6zM205 457v-12q0 -142 45 -248q39 -92 76 -97q6 -1 12 -1q40 0 82 34q61 49 117 123q55 74 92 160q20 47 30 96q8 35 13 70q6 74 12 149q2 61 6 111q2 36 4 69 q-4 4 -6 9q-18 16 -98 22h-9q-81 0 -187 -68q-113 -71 -148 -165q-39 -100 -41 -252z" />
<glyph unicode="r" horiz-adv-x="708" d="M96 74v27q0 69 8 157q4 45 11 98q6 133 14 248q10 141 10 237v31q-4 106 -4 148q-2 2 -4 8t-2 20.5t4 24.5q5 11 21 19q13 7 32 6h9q31 -2 44 -14.5t11 -24.5v-10l8 -31q11 -32 -14 -55q2 -37 4 -89v-28q25 45 53 80q61 76 127 98q57 20 96 23l31 2q23 3 40 -13 q18 -16 18 -40q0 -20 -13 -36q-14 -18 -37 -20l-31 -2q-25 0 -69 -16q-37 -14 -78 -66q-47 -55 -84 -154q-20 -55 -37 -120q-12 -49 -20 -105q-12 -68 -21 -129q-2 -59 -4 -117q-4 -199 -4 -229l2 -2q2 -2 3 -5t2 -7t1 -9.5t-2 -11.5t-8 -14t-16 -16q-29 -20 -47 -20 q-6 0 -10 2q-20 7 -27 30l-7 22q-6 23 -10 103z" />
<glyph unicode="s" horiz-adv-x="937" d="M97 313q3 23 21.5 35t41 9t35.5 -21l73 -103q63 -90 160 -129q47 -19 83 -19q33 0 58 15q51 29 60 140v17q0 104 -68 175q-67 69 -130 69q-7 0 -13 -1q-78 -6 -134 -6h-26q-33 2 -55 22q-37 32 -37 104v15q0 27 6 59q25 150 119 260q98 117 235 123h8q137 0 220 -129 q72 -117 82 -182l6 -51q1 -5 1 -10q1 -17 -11 -31q-14 -18 -36 -21.5t-40.5 11t-20.5 36.5l-8 52q-6 41 -65 139q-50 78 -128 78h-4q-90 -4 -157 -84q-74 -88 -94 -209q-6 -36 -5 -59v-15h22q47 0 112 6q12 1 23 1q108 0 208 -101q99 -103 99 -246q0 -14 -1 -29 q-12 -170 -114 -227q-50 -29 -110 -29q-58 0 -126 27q-125 51 -207 166l-74 102q-10 14 -10 32q0 4 1 9z" />
<glyph unicode="t" horiz-adv-x="780" d="M99 906q-3 9 -3 17q0 13 6 25q10 20 31 27l35 10q39 14 225 29h10q6 156 7 180v27q0 23 16 38t37.5 15t38 -15.5t16.5 -37.5v-27q0 -27 -6 -172q70 4 86 6l29 2q23 4 40 -11t19 -37v-5q0 -17 -12 -33q-14 -18 -37 -20l-29 -4q-18 0 -100 -7q-3 -90 -3 -186q0 -48 1 -98 q2 -195 2 -361q-1 -55 -1 -97q0 -86 3 -124l2 -57q0 -23 -16 -40q-14 -16 -36 -17h-3q-21 1 -37 15q-18 16 -17 36l-2 59q-3 39 -3 126q0 43 1 99q0 166 -2 361q-1 48 -1 95q0 94 3 181q-170 -12 -198 -22l-33 -11q-20 -8 -41 2t-28 32z" />
<glyph unicode="u" horiz-adv-x="884" d="M96 541v73q0 175 8 260q12 106 23 138l8 24q9 20 29 30q12 6 23 6l17 -3q20 -8 31 -28.5t3 -41.5l-9 -24q-6 -16 -16 -111q-8 -82 -8 -252v-71q2 -219 39 -314q33 -90 61 -108q20 -16 31 -15q20 2 53 23q35 23 82 70q43 47 74 131q23 57 43 139q10 43 20 90q18 90 33 160 v20q10 109 21 181q12 68 14 92q2 0 3 2t7 7t12.5 9t14.5 9t16 8.5t16.5 5.5t14.5 2t12 -4.5t10 -12.5q6 -16 8 -23q1 -4 0.5 -5.5t-0.5 -2.5q-2 -1 -4 -4.5t-2 -9.5q-4 -35 -6 -80q-4 -49 -18 -141q-4 -31 -12 -68q-6 -94 -13 -208q-2 -16 -2 -37q-6 -109 -12 -195 q-6 -100 -10 -131q-4 -29 -6 -45l-3 -20v-9q-2 -10 -2 -18v-21q0 -20 -16 -36q-15 -16 -36 -16h-2q-22 1 -38 17.5t-16 36.5v21q0 20 4 51l2 31q0 8 4 16v6q2 16 6 60q-27 -47 -59 -82q-55 -59 -105 -90q-51 -31 -94 -37q-7 -1 -14 -1q-47 0 -96 36q-51 39 -99 157 q-43 113 -45 353z" />
<glyph unicode="v" horiz-adv-x="1001" d="M98 956q-2 8 -2 16q0 14 6 28q10 20 31 26t41.5 -4t28.5 -31l16 -53q18 -55 78 -242q61 -188 100 -370q14 -61 25 -107q20 70 51 170q49 158 117 291q66 133 117 203q47 66 73 110l27 45q11 18 33 24q7 2 14 1q16 1 28 -7q20 -12 24 -34q1 -6 1 -12q0 -15 -8 -29l-27 -45 q-29 -47 -77 -115q-45 -66 -109 -190q-63 -125 -108 -275q-49 -154 -72 -235q-23 -80 -29 -101q-10 -31 -50 -37q-7 -1 -14 -1q-30 0 -46 22q-16 23 -27 76q-8 41 -47 221q-39 178 -98 363q-59 186 -78 239z" />
<glyph unicode="w" horiz-adv-x="1011" d="M96 932l4 43q0 23 17.5 38t39 13t37 -18.5t14.5 -38.5l-3 -43q-1 -10 -1 -29q0 -57 4 -203q6 -194 25 -352q18 -156 41 -223q8 -29 17 -47q23 18 53 88q37 84 76 278q39 201 51 303q12 106 21 168q0 4 -1.5 7.5t-1.5 14.5t4.5 19t16.5 17.5t33 11.5q10 2 19 2 q30 1 44 -21q18 -28 15 -59l-5 -31q5 -58 5 -136q0 -58 -3 -128v-34q0 -132 27 -242q33 -127 57 -174q14 -27 29 -50q18 35 37 89q27 78 35 133q5 44 5 86q0 14 -1 28q-2 61 -4 115.5t-6 112.5q-2 57 -2 114q0 53 -2 86q-1 18 -1 37t1 37l2 37q0 23 16 38q15 14 36 14h3 q22 -1 37.5 -17.5t15.5 -38.5l-2 -37q-1 -16 -1 -33t1 -33q2 -35 2 -90q0 -53 2 -108q4 -59 6 -115q2 -53 4 -117q0 -13 1 -25q0 -51 -7 -104q-8 -70 -39 -157q-31 -90 -67 -140q-33 -43 -72 -45h-4q-40 0 -65 41q-25 35 -54 90q-33 57 -67 199q-12 45 -19 94 q-39 -190 -78 -280q-45 -102 -96 -135q-39 -26 -71 -26q-25 0 -46 15q-16 12 -28.5 33t-16.5 33t-16 49q-25 78 -43 244q-21 162 -27 360q-5 152 -4 213v29z" />
<glyph unicode="x" horiz-adv-x="985" d="M97 2q-1 4 -1 9q0 17 10 32l15 20q12 18 26 41q14 25 49 75t87 124q51 74 108 166q23 35 43 68q-90 127 -166 229q-129 174 -149 217l-17 37q-5 11 -5 22q-1 8 3 18q8 20 30 30q11 5 22 6q9 0 18 -4q20 -8 31 -27l16 -37q16 -33 139 -197q66 -88 140 -192q4 8 10 18 q55 98 127 195q68 88 92 129l25 45q12 18 33.5 24.5t41 -5t25.5 -33t-6 -41.5l-25 -43q-29 -47 -98 -142q-68 -90 -121 -184q-18 -31 -37 -59q43 -59 86 -125q164 -240 199 -295l35 -55q8 -13 8 -28q0 -6 -1 -13q-5 -23 -24.5 -34t-41 -6t-33.5 23l-35 56q-33 53 -197 290 q-29 43 -57 84q-8 -14 -19 -30q-59 -92 -112 -168q-51 -74 -84 -123t-47 -72q-16 -27 -31 -47l-14 -20q-12 -16 -35 -20l-12 -2q-16 0 -30 10q-18 12 -21 34z" />
<glyph unicode="y" horiz-adv-x="823" d="M97 -482q3 21 21.5 34.5t39.5 11.5l67 -10q12 -2 24 -2q49 0 116 24q80 29 114 82q39 59 56 133q14 63 28 217q-58 -53 -115 -53q-33 0 -65 18q-68 37 -111 129q-43 88 -49 344q-2 68 -2 128q0 159 12 257q18 135 29 168l10 29q8 20 28 30q11 6 22 6q9 0 18 -3 q22 -8 32.5 -28.5t2.5 -41.5l-10 -26q-6 -23 -23 -148q-12 -92 -12 -244q0 -57 2 -122q6 -233 39 -301q29 -61 65 -82q18 -10 53 20q35 31 60 96q12 29 20 64q10 37 19 78q6 104 9 199.5t5 176.5q4 84 6 158q2 39 60 111q29 39 44 39q10 0 13 -21q2 -20 -2 -45 q-2 -14 -4 -47q0 -33 6 -135q3 -44 3 -94q0 -25 -1 -52q-2 -53 -6 -112q-9 -101 -27 -193q-4 -70 -8 -139q-4 -39 -6 -78q-20 -238 -39 -325q-20 -94 -72 -170q-53 -84 -168 -125q-83 -30 -150 -30q-21 0 -40 3l-68 8q-23 4 -36 23q-11 15 -11 32q0 3 1 8z" />
<glyph unicode="z" horiz-adv-x="976" d="M98 72q6 18 29 39q18 18 37 49q18 35 37 76q20 45 59 129q41 90 96 172q53 80 138 180q84 100 172 184q33 31 59 60q-58 -3 -122 -3h-32q-106 6 -204 13q-98 8 -152 18l-47 10q-23 4 -35 23.5t-8 41.5q3 22 23 34q15 9 30 9q5 0 10 -1l50 -10q45 -8 137 -17 q96 -6 203 -12q34 -1 66 -1q64 0 118 5q15 1 27 1q42 0 65 -15q23 -16 26 -40q1 -8 1 -14q-1 -14 -5 -25q-6 -15 -14 -28q-35 -45 -123 -129q-84 -78 -161 -174q-80 -94 -132 -170q-49 -76 -86 -158q-41 -84 -59 -129q-20 -47 -45 -86l-6 -12q63 -4 117 -6q55 -2 98 -4 q13 -1 28 -1q30 0 68 3q49 2 94 20l54 23q20 8 40.5 0t29.5 -28.5t0 -42t-29 -29.5l-54 -23q-61 -25 -129 -29q-41 -3 -74 -3q-17 0 -32 1q-43 2 -99.5 4.5t-121.5 6.5q-68 4 -90 8q-20 4 -40 26q-14 16 -14 37q0 8 2 17z" />
<glyph unicode="&#x2000;" horiz-adv-x="759" />
<glyph unicode="&#x2001;" horiz-adv-x="1519" />
<glyph unicode="&#x2002;" horiz-adv-x="759" />
<glyph unicode="&#x2003;" horiz-adv-x="1519" />
<glyph unicode="&#x2004;" horiz-adv-x="506" />
<glyph unicode="&#x2005;" horiz-adv-x="379" />
<glyph unicode="&#x2006;" horiz-adv-x="253" />
<glyph unicode="&#x2007;" horiz-adv-x="253" />
<glyph unicode="&#x2008;" horiz-adv-x="189" />
<glyph unicode="&#x2009;" horiz-adv-x="303" />
<glyph unicode="&#x200a;" horiz-adv-x="84" />
<glyph unicode="&#x2018;" horiz-adv-x="325" d="M100 1126v2q1 25 17 41q14 16 37.5 16.5t38.5 -16.5l6 -6q29 -29 10 -63l10 -15q14 -18 10 -40.5t-21.5 -36t-40 -9t-34.5 20.5l-16 20q-31 43 -17 86z" />
<glyph unicode="&#x2019;" horiz-adv-x="323" d="M98 1151l17 72q-2 27 16 45q14 14 36.5 14t39.5 -14l6 -6q14 -14 15 -35t-9 -37l-16 -64q-4 -23 -23.5 -34t-41 -5.5t-34 24.5t-6.5 40z" />
<glyph unicode="&#x201c;" horiz-adv-x="665" d="M102 1098q-14 88 7 137l12 35q8 20 28.5 29.5t42 1t30.5 -29t1 -40.5l-14 -35q-8 -23 0 -82l12 -76q2 -20 -11 -38.5t-34.5 -21.5t-40 10t-22.5 36zM416 1092q0 90 30 141l23 39q10 20 32.5 25.5t41 -6t24.5 -33t-6 -41.5l-22 -39q-14 -25 -15 -84l2 -76q0 -20 -15 -36.5 t-37.5 -17.5t-39 15t-16.5 37z" />
<glyph unicode="&#x201d;" horiz-adv-x="653" d="M96 1100l2 41q4 49 19 88l12 33q8 20 29.5 29t42 1t30 -28.5t0.5 -40.5l-12 -33q-10 -25 -12 -55l-2 -41q-2 -23 -18.5 -38.5t-39 -14.5t-38 18.5t-13.5 40.5zM401 1112l15 47q16 55 30 80l11 18q12 20 33.5 26.5t41 -4.5t25.5 -33.5t-6 -41.5l-10 -20q-8 -12 -21 -56 l-14 -47q-6 -23 -26.5 -33t-42 -3.5t-32 26t-4.5 41.5z" />
<glyph unicode="&#x202f;" horiz-adv-x="303" />
<glyph unicode="&#x205f;" horiz-adv-x="379" />
<glyph unicode="&#x25fc;" horiz-adv-x="1095" d="M0 0v1096h1096v-1096h-1096z" />
</font>
</defs>
</svg>
